<svg width="18" height="18" viewBox="0 0 18 18" fill="none" xmlns="http://www.w3.org/2000/svg">
<path fill-rule="evenodd" clip-rule="evenodd" d="M7.5 16.5C7.10218 16.5 6.72064 16.342 6.43934 16.0607C6.15804 15.7794 6 15.3978 6 15V3C6 2.60218 6.15804 2.22064 6.43934 1.93934C6.72064 1.65804 7.10218 1.5 7.5 1.5H15.75C16.1478 1.5 16.5294 1.65804 16.8107 1.93934C17.092 2.22064 17.25 2.60218 17.25 3V15C17.25 15.3978 17.092 15.7794 16.8107 16.0607C16.5294 16.342 16.1478 16.5 15.75 16.5H7.5ZM7.125 15C7.125 15.0995 7.16451 15.1948 7.23483 15.2652C7.30516 15.3355 7.40054 15.375 7.5 15.375H15.75C15.8495 15.375 15.9448 15.3355 16.0152 15.2652C16.0855 15.1948 16.125 15.0995 16.125 15V3C16.125 2.90054 16.0855 2.80516 16.0152 2.73484C15.9448 2.66451 15.8495 2.625 15.75 2.625H7.5C7.40054 2.625 7.30516 2.66451 7.23483 2.73484C7.16451 2.80516 7.125 2.90054 7.125 3V15ZM4.6275 3.12375C4.69418 3.25713 4.70518 3.41153 4.65806 3.55301C4.61095 3.69449 4.50959 3.81148 4.37625 3.87825C4.20525 3.96375 4.155 4.011 4.14 4.029C4.13705 4.03245 4.13499 4.03657 4.134 4.041C4.12692 4.06841 4.12389 4.09671 4.125 4.125V13.875C4.125 13.9275 4.131 13.9515 4.134 13.959C4.13473 13.9635 4.13683 13.9677 4.14 13.971C4.155 13.989 4.20525 14.0363 4.37625 14.1217C4.44292 14.1544 4.50248 14.1999 4.55148 14.2557C4.60048 14.3114 4.63795 14.3764 4.66174 14.4467C4.68553 14.517 4.69517 14.5913 4.6901 14.6654C4.68502 14.7395 4.66534 14.8118 4.63218 14.8782C4.59902 14.9446 4.55304 15.0038 4.49689 15.0524C4.44074 15.101 4.37554 15.1379 4.30503 15.1612C4.23453 15.1844 4.16012 15.1935 4.0861 15.1878C4.01208 15.1822 3.93991 15.1619 3.87375 15.1283C3.66975 15.0262 3.43875 14.892 3.26625 14.6798C3.075 14.4443 3 14.1698 3 13.875V4.125C3 3.83025 3.075 3.55575 3.26625 3.32025C3.43875 3.108 3.66975 2.97375 3.87375 2.87175C4.00722 2.80512 4.16169 2.79424 4.30319 2.84149C4.44468 2.88875 4.56161 2.99028 4.62825 3.12375H4.6275ZM1.6125 4.218C1.64951 4.28196 1.67355 4.35259 1.68325 4.42585C1.69295 4.49911 1.68812 4.57356 1.66903 4.64495C1.64995 4.71635 1.61699 4.78328 1.57202 4.84192C1.52706 4.90057 1.47099 4.94978 1.407 4.98675C1.2945 5.052 1.21425 5.11425 1.167 5.1705C1.125 5.22 1.125 5.2425 1.125 5.25V12.75C1.125 12.7575 1.125 12.78 1.167 12.8295C1.21425 12.885 1.2945 12.948 1.407 13.0133C1.47092 13.0503 1.52692 13.0995 1.57181 13.1582C1.61669 13.2169 1.64958 13.2838 1.66859 13.3552C1.6876 13.4266 1.69237 13.501 1.68262 13.5743C1.67286 13.6475 1.64878 13.7181 1.61175 13.782C1.57472 13.8459 1.52546 13.9019 1.46678 13.9468C1.40811 13.9917 1.34117 14.0246 1.26978 14.0436C1.1984 14.0626 1.12396 14.0674 1.05074 14.0576C0.97751 14.0479 0.906921 14.0238 0.843 13.9867C0.5475 13.8158 0 13.4303 0 12.75V5.25C0 4.56975 0.5475 4.185 0.843 4.0125C0.906964 3.97549 0.977594 3.95145 1.05085 3.94175C1.12411 3.93205 1.19856 3.93688 1.26995 3.95597C1.34135 3.97505 1.40828 4.00801 1.46692 4.05298C1.52557 4.09794 1.57478 4.15401 1.61175 4.218H1.6125Z" fill="#0F7EE3"/>
</svg>
