<svg width="20" height="15" viewBox="0 0 20 15" fill="none" xmlns="http://www.w3.org/2000/svg">
<path d="M5.72114 11.7705C5.4765 11.7709 5.24028 11.6812 5.05747 11.5186L0 7.02289L5.33833 2.27726C5.53731 2.10704 5.79515 2.0217 6.05639 2.0396C6.31763 2.0575 6.56142 2.17721 6.73532 2.37298C6.90922 2.56875 6.99935 2.82495 6.98633 3.08648C6.9733 3.34802 6.85816 3.59399 6.66567 3.77151L3.0085 7.02289L6.38481 10.0234C6.53649 10.158 6.64365 10.3355 6.69205 10.5325C6.74046 10.7294 6.72781 10.9364 6.6558 11.1259C6.58379 11.3155 6.45582 11.4787 6.28888 11.5938C6.12194 11.709 5.92393 11.7706 5.72114 11.7705ZM14.6617 11.7685L20 7.02289L14.9425 2.52714C14.7444 2.35112 14.4844 2.26103 14.2198 2.27668C13.9553 2.29233 13.7078 2.41244 13.5317 2.61059C13.3557 2.80874 13.2656 3.0687 13.2813 3.33328C13.2969 3.59785 13.417 3.84537 13.6152 4.02139L16.9915 7.02289L13.3343 10.2733C13.1361 10.4493 13.0158 10.6969 13.0001 10.9615C12.9843 11.2262 13.0744 11.4863 13.2504 11.6846C13.4264 11.8828 13.674 12.0031 13.9386 12.0188C14.2033 12.0346 14.4634 11.9445 14.6617 11.7685ZM9.98601 13.1848L11.985 1.1908C12.0106 1.05972 12.0096 0.924848 11.9822 0.794147C11.9547 0.663446 11.9014 0.539568 11.8253 0.429833C11.7491 0.320098 11.6518 0.226729 11.539 0.155243C11.4262 0.0837575 11.3002 0.0356036 11.1685 0.0136264C11.0367 -0.00835087 10.9019 -0.00370588 10.772 0.0272871C10.6421 0.0582801 10.5198 0.114993 10.4121 0.194074C10.3045 0.273156 10.2138 0.373003 10.1455 0.487718C10.0771 0.602433 10.0324 0.729689 10.014 0.861969L8.01499 12.856C7.98943 12.9871 7.9904 13.1219 8.01784 13.2526C8.04528 13.3833 8.09863 13.5072 8.17475 13.6169C8.25086 13.7267 8.3482 13.82 8.46101 13.8915C8.57382 13.963 8.69981 14.0112 8.83154 14.0332C8.96327 14.0551 9.09806 14.0505 9.22797 14.0195C9.35787 13.9885 9.48025 13.9318 9.58787 13.8527C9.69549 13.7736 9.78617 13.6738 9.85455 13.5591C9.92293 13.4443 9.96763 13.3171 9.98601 13.1848Z" fill="#0F7EE3"/>
</svg>
