<svg width="16" height="20" viewBox="0 0 16 20" fill="none" xmlns="http://www.w3.org/2000/svg">
<path d="M4.66699 3.33329V13.3333C4.66699 13.7753 4.84259 14.1992 5.15515 14.5118C5.46771 14.8244 5.89163 15 6.33366 15H13.0003C13.4424 15 13.8663 14.8244 14.1788 14.5118C14.4914 14.1992 14.667 13.7753 14.667 13.3333V6.03496C14.667 5.81293 14.6226 5.59314 14.5364 5.3885C14.4503 5.18386 14.3241 4.99849 14.1653 4.84329L11.4028 2.14163C11.0915 1.83717 10.6733 1.66668 10.2378 1.66663H6.33366C5.89163 1.66663 5.46771 1.84222 5.15515 2.15478C4.84259 2.46734 4.66699 2.89127 4.66699 3.33329V3.33329Z" stroke="#0F7EE3" stroke-width="2" stroke-linecap="round" stroke-linejoin="round"/>
<path d="M11.3335 14.9999V16.6666C11.3335 17.1086 11.1579 17.5325 10.8453 17.8451C10.5328 18.1577 10.1089 18.3333 9.66683 18.3333H3.00016C2.55814 18.3333 2.13421 18.1577 1.82165 17.8451C1.50909 17.5325 1.3335 17.1086 1.3335 16.6666V7.49992C1.3335 7.05789 1.50909 6.63397 1.82165 6.32141C2.13421 6.00885 2.55814 5.83325 3.00016 5.83325H4.66683" stroke="#0F7EE3" stroke-width="2" stroke-linecap="round" stroke-linejoin="round"/>
</svg>
