<svg width="16" height="18" viewBox="0 0 16 18" fill="none" xmlns="http://www.w3.org/2000/svg">
<path d="M8.00009 5.39618C8.25053 5.39618 8.49071 5.29669 8.6678 5.1196C8.84489 4.94251 8.94437 4.70233 8.94437 4.45189C8.94437 4.20145 8.84489 3.96127 8.6678 3.78418C8.49071 3.6071 8.25053 3.50761 8.00009 3.50761C7.74965 3.50761 7.50947 3.6071 7.33238 3.78418C7.15529 3.96127 7.05581 4.20145 7.05581 4.45189C7.05581 4.70233 7.15529 4.94251 7.33238 5.1196C7.50947 5.29669 7.74965 5.39618 8.00009 5.39618ZM14.7976 13.8545V7.80475H14.9018C15.9135 7.80475 16.3293 6.50417 15.5022 5.91845L8.8747 1.21459C8.61918 1.03307 8.31352 0.935547 8.00009 0.935547C7.68666 0.935547 7.381 1.03307 7.12548 1.21459L0.495665 5.91845C-0.329097 6.50417 0.0844171 7.80362 1.09611 7.80362H1.2026V13.8534C0.521722 14.2907 0.0696893 15.0543 0.0696893 15.9232V17.4334C0.0696893 17.5836 0.12937 17.7277 0.235601 17.8339C0.341832 17.9402 0.485913 17.9998 0.636147 17.9998H15.364C15.5143 17.9998 15.6583 17.9402 15.7646 17.8339C15.8708 17.7277 15.9305 17.5836 15.9305 17.4334V15.9232C15.9305 15.0543 15.4796 14.2907 14.7976 13.8545ZM7.7803 2.13905C7.84406 2.09388 7.92026 2.06962 7.99839 2.06962C8.07652 2.06962 8.15272 2.09388 8.21648 2.13905L14.605 6.6707H1.39293L7.78144 2.13905H7.7803ZM13.6624 7.80362V13.475C13.5998 13.4703 13.5371 13.4681 13.4743 13.4682H11.3966V7.80475H13.6624V7.80362ZM2.33552 13.475V7.80475H4.60135V13.4693H2.52358C2.46014 13.4693 2.3967 13.4716 2.33439 13.4761L2.33552 13.475ZM2.52471 14.6011H13.4766C14.2062 14.6011 14.7976 15.1925 14.7976 15.9232V16.8669H1.2026V15.9232C1.2026 15.1925 1.79512 14.6011 2.52471 14.6011ZM7.43363 13.4682H5.73426V7.80475H7.43363V13.4693V13.4682ZM8.56655 13.4682V7.80475H10.2659V13.4693H8.56655V13.4682Z" fill="#0F7EE3"/>
</svg>
