<svg width="32" height="30" viewBox="0 0 32 30" fill="none" xmlns="http://www.w3.org/2000/svg">
<path d="M31.705 13.9039L28.4444 11.0244V3.44444C28.4444 3.20869 28.3508 2.9826 28.1841 2.8159C28.0174 2.6492 27.7913 2.55555 27.5556 2.55555H24C23.7643 2.55555 23.5382 2.6492 23.3715 2.8159C23.2048 2.9826 23.1111 3.20869 23.1111 3.44444V6.31499L17.4878 1.34999C17.1389 1.03388 16.4739 0.777771 16 0.777771C15.5261 0.777771 14.8633 1.03388 14.5144 1.34999L0.292222 13.9055C0.11699 14.0826 0.0129823 14.3179 0 14.5667C0.0113538 14.7839 0.090856 14.9921 0.227222 15.1617L1.41667 16.4833C1.60204 16.6497 1.83551 16.7528 2.08333 16.7778C2.29819 16.7563 2.50332 16.6774 2.67722 16.5494L3.56056 15.7717V27.4444C3.56056 27.9159 3.74786 28.3681 4.08125 28.7015C4.41465 29.0349 4.86684 29.2222 5.33833 29.2222H26.6667C27.1382 29.2222 27.5903 29.0349 27.9237 28.7015C28.2571 28.3681 28.4444 27.9159 28.4444 27.4444V15.7711L29.3283 16.5489C29.503 16.6767 29.7086 16.7557 29.9239 16.7778C30.1695 16.7521 30.4005 16.6488 30.5833 16.4828L31.7728 15.16C31.9004 14.986 31.9789 14.7809 32 14.5661C31.9745 14.3196 31.8712 14.0877 31.705 13.9039V13.9039ZM16 10.5555C16.7032 10.5555 17.3907 10.7641 17.9754 11.1548C18.5601 11.5455 19.0158 12.1008 19.2849 12.7505C19.554 13.4001 19.6244 14.115 19.4872 14.8048C19.35 15.4945 19.0114 16.128 18.5142 16.6253C18.0169 17.1225 17.3834 17.4612 16.6937 17.5983C16.0039 17.7355 15.289 17.6651 14.6393 17.396C13.9897 17.1269 13.4344 16.6712 13.0437 16.0865C12.653 15.5018 12.4444 14.8143 12.4444 14.1111C12.4444 13.1681 12.819 12.2637 13.4858 11.5969C14.1526 10.9302 15.057 10.5555 16 10.5555ZM22.2222 25.6667H9.77778C9.54203 25.6667 9.31594 25.573 9.14924 25.4063C8.98254 25.2396 8.88889 25.0135 8.88889 24.7778C8.88889 23.3633 9.45079 22.0067 10.451 21.0065C11.4512 20.0063 12.8077 19.4444 14.2222 19.4444H17.7778C19.1923 19.4444 20.5488 20.0063 21.549 21.0065C22.5492 22.0067 23.1111 23.3633 23.1111 24.7778C23.1111 25.0135 23.0175 25.2396 22.8508 25.4063C22.6841 25.573 22.458 25.6667 22.2222 25.6667Z" fill="#0F7EE3"/>
</svg>
