<svg width="5" height="8" viewBox="0 0 5 8" fill="none" xmlns="http://www.w3.org/2000/svg">
<path d="M4.74428 0.218599C5.07225 0.5193 5.09799 0.937938 4.74428 1.30554L1.9889 4.00082L4.74428 6.69609C5.09799 7.0637 5.07225 7.48302 4.74428 7.78166C4.41705 8.08236 3.86406 8.06305 3.55668 7.78166C3.2493 7.50164 0.246111 4.5436 0.246111 4.5436C0.168272 4.47316 0.106362 4.38873 0.0640772 4.29536C0.0217925 4.20198 0 4.10157 0 4.00013C0 3.89868 0.0217925 3.79827 0.0640772 3.7049C0.106362 3.61152 0.168272 3.5271 0.246111 3.45666C0.246111 3.45666 3.2493 0.499989 3.55668 0.218599C3.86406 -0.0634812 4.41705 -0.0821026 4.74428 0.218599V0.218599Z" fill="#082233"/>
</svg>
