<svg width="28" height="22" viewBox="0 0 28 22" fill="none" xmlns="http://www.w3.org/2000/svg">
<path d="M24.6667 21.6667H3.33341C2.62617 21.6667 1.94789 21.3858 1.4478 20.8857C0.9477 20.3856 0.666748 19.7073 0.666748 19V2.88404C0.696658 2.1971 0.99076 1.54825 1.48765 1.07298C1.98454 0.597698 2.64582 0.332724 3.33341 0.333375H24.6667C25.374 0.333375 26.0523 0.614327 26.5524 1.11442C27.0525 1.61452 27.3334 2.2928 27.3334 3.00004V19C27.3334 19.7073 27.0525 20.3856 26.5524 20.8857C26.0523 21.3858 25.374 21.6667 24.6667 21.6667ZM3.33341 5.49071V19H24.6667V5.49071L14.0001 12.6L3.33341 5.49071ZM4.40008 3.00004L14.0001 9.40004L23.6001 3.00004H4.40008Z" fill="#0F7EE3"/>
</svg>
