<svg width="16" height="18" viewBox="0 0 16 18" fill="none" xmlns="http://www.w3.org/2000/svg">
<path d="M8.6008 3.1692L7.37914 3.1667C4.59247 3.16004 2.1733 5.4242 2.15414 8.1667V11.325C2.15414 11.9834 2.0708 12.6259 1.71164 13.1734L1.47247 13.5384C1.1083 14.0917 1.49997 14.8334 2.15414 14.8334H13.8458C14.5 14.8334 14.8908 14.0917 14.5275 13.5384L14.2883 13.1734C13.93 12.6259 13.8458 11.9825 13.8458 11.3242V8.16753C13.8125 5.4242 11.3875 3.17587 8.6008 3.1692V3.1692Z" stroke="#0F7EE3" stroke-width="1.3" stroke-linecap="round" stroke-linejoin="round"/>
<path d="M10.5 14.8334C10.5 15.4964 10.2366 16.1323 9.76777 16.6011C9.29893 17.07 8.66304 17.3334 8 17.3334C7.33696 17.3334 6.70107 17.07 6.23223 16.6011C5.76339 16.1323 5.5 15.4964 5.5 14.8334" stroke="#0F7EE3" stroke-width="1.3" stroke-linecap="round" stroke-linejoin="round"/>
<path d="M7.99992 0.666687C8.44195 0.666687 8.86587 0.842282 9.17843 1.15484C9.49099 1.4674 9.66658 1.89133 9.66658 2.33335V3.16669H6.33325V2.33335C6.33325 1.89133 6.50885 1.4674 6.82141 1.15484C7.13397 0.842282 7.55789 0.666687 7.99992 0.666687Z" stroke="#0F7EE3" stroke-width="1.3" stroke-linecap="round" stroke-linejoin="round"/>
</svg>
