<svg width="122" height="48" viewBox="0 0 122 48" fill="none" xmlns="http://www.w3.org/2000/svg">
<g clip-path="url(#clip0_2_3093)">
<path d="M58.9699 13.739L58.3713 11.9431H54.3976L53.799 13.739H51.6799L55.1688 3.76807H57.6037L61.1037 13.739H58.9699ZM55.0256 10.1069H57.758L56.3918 6.03402L55.0256 10.1069Z" fill="#082233"/>
<path d="M67.8279 12.0863C67.5769 12.533 67.2341 12.9214 66.8219 13.2259C66.4098 13.5303 65.9379 13.744 65.4371 13.8527V14.3926C65.7068 14.4282 65.955 14.5586 66.1373 14.7605C66.3197 14.9623 66.4243 15.2225 66.4324 15.4944C66.4324 16.4933 65.3931 16.934 63.2997 16.8055V15.5164C64.3244 15.5899 64.8385 15.487 64.8385 15.2336C64.8385 15.0463 64.5374 14.9178 63.9387 14.8664V13.8785C63.0645 13.7475 62.268 13.3023 61.6985 12.6261C61.1265 11.9399 60.8225 11.0697 60.8428 10.1765C60.8312 9.67969 60.9206 9.18565 61.1055 8.72436C61.2905 8.26306 61.5671 7.8441 61.9187 7.49285C62.2703 7.1416 62.6895 6.86536 63.151 6.68087C63.6125 6.49638 64.1066 6.40748 64.6035 6.41954C65.252 6.40456 65.8922 6.56786 66.4543 6.89165C67.0164 7.21544 67.4788 7.6873 67.7912 8.25581L66.2194 9.18128C66.0668 8.88493 65.8333 8.63793 65.5459 8.46892C65.2586 8.29991 64.9293 8.21583 64.5961 8.22643C64.3402 8.22011 64.0856 8.26655 63.8484 8.36285C63.6112 8.45915 63.3963 8.60324 63.2172 8.78617C63.038 8.9691 62.8985 9.18694 62.8071 9.42614C62.7158 9.66534 62.6747 9.92077 62.6864 10.1765C62.68 10.4336 62.7247 10.6893 62.818 10.9289C62.9113 11.1685 63.0513 11.3871 63.2299 11.5721C63.4084 11.7515 63.6216 11.8926 63.8565 11.9867C64.0915 12.0808 64.3431 12.1259 64.5961 12.1193C64.9303 12.1345 65.2619 12.0542 65.552 11.8877C65.8421 11.7212 66.0787 11.4754 66.2341 11.1791L67.8279 12.0863Z" fill="#082233"/>
<path d="M68.2283 13.739V6.6106H70.0645V13.739H68.2283Z" fill="#082233"/>
<path d="M76.5723 6.61055H78.4086V16.5851H76.5723V12.9126C76.2999 13.2589 75.9481 13.5345 75.5466 13.716C75.1452 13.8976 74.7059 13.9797 74.266 13.9556C73.8004 13.9585 73.3396 13.8617 72.9145 13.6717C72.4895 13.4816 72.11 13.2028 71.8017 12.8539C71.1312 12.1258 70.7692 11.1661 70.7918 10.1766C70.7691 9.19144 71.1314 8.23629 71.8017 7.51399C72.1118 7.16728 72.4916 6.88994 72.9163 6.70008C73.3409 6.51023 73.8008 6.41214 74.266 6.41223C74.7056 6.38767 75.1447 6.46929 75.5461 6.65019C75.9475 6.83109 76.2995 7.10595 76.5723 7.45156V6.61055ZM74.6075 12.1781C74.8681 12.1883 75.128 12.1449 75.3711 12.0508C75.6143 11.9567 75.8356 11.8138 76.0215 11.6309C76.2076 11.4357 76.3526 11.2051 76.4479 10.9527C76.5432 10.7003 76.5867 10.4314 76.576 10.1619C76.5845 9.8998 76.5397 9.63871 76.4444 9.39442C76.3491 9.15013 76.2052 8.92771 76.0215 8.74062C75.8395 8.55202 75.6199 8.40385 75.377 8.30577C75.134 8.2077 74.8731 8.1619 74.6112 8.17137C74.3473 8.16323 74.0846 8.20958 73.8394 8.30752C73.5943 8.40546 73.3719 8.5529 73.1863 8.74062C73.0014 8.92994 72.8569 9.15484 72.7616 9.40168C72.6663 9.64852 72.6221 9.91215 72.6317 10.1766C72.6218 10.446 72.6658 10.7147 72.761 10.967C72.8562 11.2192 73.0008 11.4499 73.1863 11.6456C73.3755 11.8253 73.5987 11.9656 73.8427 12.0583C74.0867 12.151 74.3467 12.1942 74.6075 12.1855V12.1781Z" fill="#082233"/>
<path d="M62.3155 18.9172V28.8845H60.3654V22.4208L57.5596 27.0482H57.3319L54.5261 22.4319V28.8845H52.5613V18.9172H54.5848L57.4457 23.6291L60.292 18.9172H62.3155Z" fill="#082233"/>
<path d="M68.5846 24.5692C68.3422 23.6731 67.6701 23.2324 66.5757 23.2324C66.3185 23.219 66.0611 23.2572 65.8189 23.3449C65.5767 23.4326 65.3545 23.5679 65.1655 23.7429L63.9535 22.5346C64.3097 22.2061 64.7273 21.9513 65.1824 21.7849C65.6375 21.6185 66.121 21.5438 66.6051 21.5651C67.1249 21.5411 67.6442 21.6236 68.1311 21.8073C68.618 21.9911 69.0622 22.2723 69.4366 22.6338C70.1183 23.3608 70.4976 24.32 70.4976 25.3166C70.4976 26.3132 70.1183 27.2724 69.4366 27.9994C69.0879 28.3624 68.6667 28.6482 68.2004 28.838C67.7341 29.0278 67.2331 29.1174 66.73 29.1011C66.2473 29.1138 65.7677 29.0219 65.3239 28.8318C64.8802 28.6416 64.4828 28.3576 64.1592 27.9994C63.8195 27.6431 63.5537 27.2231 63.3772 26.7636C63.2008 26.3041 63.117 25.8141 63.1309 25.3221C63.136 25.0757 63.1606 24.8301 63.2043 24.5876L68.5846 24.5692ZM64.9818 25.9942C65.0504 26.4071 65.2673 26.7809 65.5919 27.0453C65.9164 27.3097 66.3263 27.4465 66.7446 27.4301C67.1774 27.4603 67.6063 27.3309 67.95 27.0663C68.2938 26.8017 68.5287 26.4202 68.6103 25.9942H64.9818Z" fill="#082233"/>
<path d="M71.2178 28.8845V18.4875H73.054V28.8845H71.2178Z" fill="#082233"/>
<path d="M78.864 21.7634H80.7003V28.8845H78.864V28.0875C78.4233 28.7559 77.7109 29.0828 76.745 29.0828C76.385 29.0955 76.0264 29.0325 75.6923 28.8977C75.3583 28.763 75.0563 28.5595 74.8059 28.3005C74.2805 27.7064 74.0101 26.9294 74.053 26.1374V21.7634H75.8893V25.906C75.8893 26.8609 76.4438 27.3751 77.2995 27.3751C78.2544 27.3751 78.864 26.7911 78.864 25.6086V21.7634Z" fill="#082233"/>
<path d="M92.3788 24.4995V28.8845H90.5426V24.628C90.5426 23.7723 90.1019 23.2729 89.349 23.2729C88.508 23.2729 88.0232 23.8421 88.0232 24.8814V28.8845H86.187V24.628C86.187 23.7723 85.7463 23.2729 84.9897 23.2729C84.2332 23.2729 83.6529 23.8421 83.6529 24.8814V28.8845H81.8167V21.7635H83.6529V22.52C83.8704 22.2015 84.1678 21.9457 84.5151 21.7782C84.8625 21.6106 85.2478 21.5371 85.6324 21.5651C86.0179 21.5427 86.4021 21.6263 86.7433 21.807C87.0846 21.9876 87.3697 22.2584 87.5678 22.5898C87.8043 22.2515 88.1236 21.9795 88.4953 21.8001C88.867 21.6207 89.2786 21.5398 89.6906 21.5651C91.3248 21.5651 92.3788 22.7183 92.3788 24.4995Z" fill="#082233"/>
<path d="M98.7911 21.7634H100.627V28.8844H98.7911V28.0434C98.514 28.3879 98.1592 28.6617 97.7557 28.8424C97.3522 29.023 96.9116 29.1054 96.4701 29.0827C96.0067 29.0855 95.5481 28.9885 95.1254 28.7984C94.7028 28.6083 94.326 28.3295 94.0205 27.981C93.3709 27.2433 93.0125 26.294 93.0125 25.3111C93.0125 24.3281 93.3709 23.3788 94.0205 22.6411C94.3269 22.2937 94.7039 22.0157 95.1263 21.8257C95.5488 21.6357 96.0069 21.5381 96.4701 21.5394C96.9138 21.5197 97.3557 21.6061 97.7594 21.7913C98.163 21.9765 98.5167 22.2552 98.7911 22.6044V21.7634ZM96.8116 27.3309C97.0721 27.3396 97.3316 27.2949 97.5741 27.1995C97.8167 27.1042 98.0371 26.9602 98.2219 26.7764C98.4082 26.5874 98.5546 26.3629 98.6524 26.1162C98.7502 25.8695 98.7973 25.6057 98.7911 25.3404C98.8055 25.0692 98.7622 24.7981 98.6641 24.5449C98.5659 24.2917 98.4152 24.0621 98.2219 23.8714C97.8433 23.5061 97.3377 23.3019 96.8116 23.3019C96.2855 23.3019 95.78 23.5061 95.4014 23.8714C95.2122 24.0645 95.0652 24.2948 94.9697 24.5476C94.8743 24.8005 94.8324 25.0705 94.8468 25.3404C94.8361 25.61 94.8797 25.8789 94.9749 26.1313C95.0702 26.3836 95.2152 26.6142 95.4014 26.8094C95.5889 26.9873 95.8106 27.1252 96.053 27.2148C96.2954 27.3045 96.5535 27.344 96.8116 27.3309Z" fill="#082233"/>
<path d="M105.798 23.53H104.19V26.49C104.19 27.2613 104.744 27.2759 105.798 27.2245V28.8919C103.275 29.1746 102.353 28.4512 102.353 26.4974V23.53H101.112V21.7635H102.353V20.3275L104.19 19.7693V21.7635H105.798V23.53Z" fill="#082233"/>
<path d="M106.525 28.8845V18.4875H108.362V28.8845H106.525Z" fill="#082233"/>
<path d="M114.884 21.7634H116.72V28.8845H114.884V28.0434C114.607 28.3884 114.253 28.6625 113.849 28.8432C113.445 29.0239 113.005 29.1061 112.563 29.0828C112.1 29.0855 111.641 28.9885 111.218 28.7984C110.796 28.6083 110.419 28.3296 110.114 27.981C109.464 27.2433 109.105 26.2941 109.105 25.3111C109.105 24.3281 109.464 23.3788 110.114 22.6411C110.42 22.2937 110.797 22.0157 111.219 21.8257C111.642 21.6357 112.1 21.5381 112.563 21.5394C113.005 21.5161 113.445 21.5982 113.849 21.7789C114.253 21.9597 114.607 22.2338 114.884 22.5787V21.7634ZM112.905 27.331C113.165 27.3397 113.425 27.2949 113.667 27.1996C113.91 27.1042 114.13 26.9602 114.315 26.7764C114.505 26.5836 114.654 26.3537 114.752 26.101C114.85 25.8483 114.895 25.5782 114.884 25.3074C114.894 25.0417 114.848 24.7769 114.75 24.5297C114.652 24.2825 114.504 24.0584 114.315 23.8714C113.936 23.5061 113.431 23.302 112.905 23.302C112.379 23.302 111.873 23.5061 111.494 23.8714C111.305 24.0645 111.158 24.2948 111.063 24.5477C110.967 24.8006 110.925 25.0705 110.94 25.3405C110.929 25.61 110.973 25.8789 111.068 26.1313C111.163 26.3836 111.308 26.6143 111.494 26.8095C111.682 26.9873 111.904 27.1252 112.146 27.2149C112.388 27.3045 112.647 27.344 112.905 27.331Z" fill="#082233"/>
<path d="M119.655 22.99C119.828 22.5642 120.13 22.2032 120.519 21.9576C120.907 21.7119 121.363 21.594 121.822 21.6202V23.6731C121.293 23.5918 120.754 23.7139 120.312 24.0147C120.084 24.1812 119.904 24.4043 119.789 24.662C119.673 24.9196 119.627 25.2028 119.655 25.4837V28.8881H117.819V21.7634H119.655V22.99Z" fill="#082233"/>
<path d="M56.2779 34.0628C56.7258 34.0533 57.1709 34.1343 57.5868 34.3009C58.0026 34.4675 58.3806 34.7163 58.6981 35.0323C59.013 35.345 59.2629 35.7169 59.4335 36.1266C59.604 36.5363 59.6918 36.9757 59.6918 37.4194C59.6918 37.8632 59.604 38.3026 59.4335 38.7123C59.2629 39.122 59.013 39.4939 58.6981 39.8066C58.3799 40.1215 58.0017 40.3692 57.586 40.5351C57.1703 40.7011 56.7254 40.7818 56.2779 40.7725H54.5261V44.0484H52.5613V34.0628H56.2779ZM56.2779 38.9178C56.6782 38.9178 57.0621 38.7588 57.3452 38.4757C57.6283 38.1927 57.7873 37.8087 57.7873 37.4084C57.7873 37.0081 57.6283 36.6242 57.3452 36.3411C57.0621 36.058 56.6782 35.899 56.2779 35.899H54.5261V38.9289L56.2779 38.9178Z" fill="#082233"/>
<path d="M63.23 44.2283C62.734 44.2372 62.2413 44.1462 61.7812 43.9606C61.3211 43.775 60.9032 43.4986 60.5522 43.148C60.2012 42.7974 59.9245 42.3797 59.7384 41.9198C59.5524 41.4599 59.4609 40.9673 59.4693 40.4713C59.4573 39.9768 59.5473 39.4852 59.7337 39.0271C59.9201 38.569 60.1989 38.1542 60.5527 37.8087C60.9891 37.362 61.5293 37.0304 62.1251 36.8435C62.721 36.6566 63.3538 36.6203 63.9671 36.7378C64.5804 36.8553 65.155 37.1229 65.6396 37.5167C66.1242 37.9106 66.5036 38.4184 66.744 38.9947C66.9843 39.571 67.0781 40.198 67.017 40.8194C66.9558 41.4408 66.7416 42.0375 66.3935 42.5559C66.0454 43.0743 65.5743 43.4984 65.0223 43.7902C64.4702 44.0821 63.8544 44.2326 63.23 44.2283ZM63.23 42.4361C63.4858 42.4425 63.7402 42.3966 63.9776 42.3012C64.2151 42.2059 64.4306 42.063 64.6109 41.8815C64.9671 41.4983 65.1651 40.9945 65.1651 40.4713C65.1651 39.9481 64.9671 39.4442 64.6109 39.061C64.2385 38.7052 63.7432 38.5066 63.2282 38.5066C62.7131 38.5066 62.2179 38.7052 61.8455 39.061C61.4978 39.4485 61.3055 39.9507 61.3055 40.4713C61.3055 40.9918 61.4978 41.4941 61.8455 41.8815C62.0263 42.0633 62.2424 42.2063 62.4805 42.3016C62.7186 42.397 62.9736 42.4427 63.23 42.4361Z" fill="#082233"/>
<path d="M69.565 38.1356C69.7388 37.7105 70.041 37.3503 70.4295 37.1053C70.818 36.8604 71.2733 36.7429 71.7318 36.7694V38.8187C71.2037 38.7411 70.6657 38.8628 70.2224 39.1602C69.9949 39.3271 69.8146 39.5502 69.6994 39.8078C69.5841 40.0653 69.5378 40.3484 69.565 40.6292V44.0337H67.7288V36.909H69.565V38.1356Z" fill="#082233"/>
<path d="M76.5025 38.6755H74.894V41.6392C74.894 42.4067 75.4485 42.4214 76.5025 42.3737V44.0373C73.9795 44.3238 73.054 43.5966 73.054 41.6465V38.6828H71.8164V36.909H73.054V35.473L74.8903 34.9185V36.909H76.4989L76.5025 38.6755Z" fill="#082233"/>
<path d="M82.4264 36.909H84.2627V44.03H82.4264V43.189C82.1497 43.5339 81.7949 43.8081 81.3913 43.9888C80.9877 44.1695 80.547 44.2516 80.1054 44.2283C79.6437 44.2333 79.1863 44.1396 78.7638 43.9534C78.3413 43.7671 77.9636 43.4928 77.6558 43.1486C76.9853 42.4206 76.6232 41.4608 76.6458 40.4713C76.6224 39.4861 76.9848 38.5306 77.6558 37.8088C77.9618 37.461 78.3388 37.1827 78.7613 36.9927C79.1838 36.8026 79.6421 36.7052 80.1054 36.707C80.547 36.6837 80.9877 36.7658 81.3913 36.9465C81.7949 37.1273 82.1497 37.4014 82.4264 37.7463V36.909ZM80.4469 42.4765C80.7074 42.4852 80.9669 42.4405 81.2094 42.3451C81.4519 42.2498 81.6724 42.1058 81.8572 41.922C82.049 41.7302 82.1987 41.5005 82.2967 41.2475C82.3948 40.9946 82.4389 40.724 82.4264 40.453C82.4373 40.1866 82.3923 39.9208 82.2942 39.6729C82.1962 39.4249 82.0473 39.2003 81.8572 39.0133C81.4786 38.648 80.973 38.4439 80.4469 38.4439C79.9208 38.4439 79.4152 38.648 79.0367 39.0133C78.8514 39.2031 78.7066 39.4286 78.6113 39.6761C78.5159 39.9236 78.472 40.1879 78.4821 40.453C78.4705 40.7226 78.5137 40.9918 78.609 41.2442C78.7043 41.4967 78.8498 41.7273 79.0367 41.922C79.2215 42.1058 79.4419 42.2498 79.6844 42.3451C79.927 42.4405 80.1865 42.4852 80.4469 42.4765Z" fill="#082233"/>
<path d="M85.3606 44.03V33.6367H87.1969V44.03H85.3606Z" fill="#082233"/>
<path d="M88.3098 44.03V36.9089H90.1461V44.03H88.3098Z" fill="#082233"/>
<path d="M31.9805 16.5925C31.8889 19.0113 31.25 21.3779 30.1121 23.5142C28.9741 25.6506 27.3666 27.5011 25.4104 28.9267C23.4542 30.3523 21.2003 31.3159 18.8181 31.7449C16.4359 32.174 13.9874 32.0574 11.6567 31.4039C11.7484 28.9851 12.3872 26.6185 13.5252 24.4822C14.6632 22.3458 16.2707 20.4953 18.2269 19.0697C20.1831 17.6441 22.437 16.6805 24.8192 16.2515C27.2014 15.8224 29.6499 15.939 31.9805 16.5925Z" fill="#38AFCF"/>
<path d="M31.9914 15.9976V16.5925C29.6608 15.939 27.2123 15.8224 24.8301 16.2515C22.4479 16.6805 20.194 17.6441 18.2378 19.0697C16.2816 20.4953 14.6741 22.3458 13.5361 24.4822C12.3981 26.6185 11.7593 28.985 11.6676 31.4038C8.80096 30.5973 6.21623 29.0068 4.20426 26.8113C2.1923 24.6158 0.832939 21.9024 0.279132 18.9763C-0.274674 16.0503 -0.000951339 13.0278 1.0695 10.2489C2.13996 7.46993 3.96467 5.04486 6.33832 3.24651C8.71198 1.44815 11.5404 0.347877 14.5053 0.0694748C17.4703 -0.208927 20.454 0.345594 23.121 1.67065C25.7879 2.9957 28.0322 5.0387 29.6012 7.56978C31.1703 10.1009 32.0019 13.0196 32.0025 15.9976H31.9914Z" fill="#0F7EE3"/>
<path d="M43.648 31.9988C43.648 36.2426 41.9621 40.3126 38.9613 43.3134C35.9605 46.3142 31.8905 48 27.6467 48C23.4029 48 19.333 46.3142 16.3322 43.3134C13.3313 40.3126 11.6455 36.2426 11.6455 31.9988V31.4039C13.9762 32.0574 16.4246 32.174 18.8068 31.7449C21.189 31.3158 23.443 30.3523 25.3991 28.9267C27.3553 27.5011 28.9628 25.6505 30.1008 23.5142C31.2388 21.3779 31.8777 19.0113 31.9693 16.5925C35.3286 17.5376 38.2872 19.5539 40.3953 22.3348C42.5034 25.1158 43.6455 28.5092 43.648 31.9988Z" fill="#62E1BB"/>
</g>
<defs>
<clipPath id="clip0_2_3093">
<rect width="121.822" height="48" fill="white"/>
</clipPath>
</defs>
</svg>
