<svg width="16" height="18" viewBox="0 0 16 18" fill="none" xmlns="http://www.w3.org/2000/svg">
<path d="M8.00018 5.3963C8.25062 5.3963 8.4908 5.29681 8.66789 5.11972C8.84498 4.94264 8.94447 4.70245 8.94447 4.45201C8.94447 4.20157 8.84498 3.96139 8.66789 3.7843C8.4908 3.60722 8.25062 3.50773 8.00018 3.50773C7.74974 3.50773 7.50956 3.60722 7.33247 3.7843C7.15538 3.96139 7.0559 4.20157 7.0559 4.45201C7.0559 4.70245 7.15538 4.94264 7.33247 5.11972C7.50956 5.29681 7.74974 5.3963 8.00018 5.3963ZM14.7977 13.8546V7.80487H14.9019C15.9136 7.80487 16.3294 6.50429 15.5023 5.91857L8.87479 1.21471C8.61928 1.03319 8.31361 0.935669 8.00018 0.935669C7.68675 0.935669 7.38109 1.03319 7.12557 1.21471L0.495757 5.91857C-0.329005 6.50429 0.0845086 7.80374 1.0962 7.80374H1.2027V13.8535C0.521814 14.2908 0.0697809 15.0544 0.0697809 15.9233V17.4335C0.0697809 17.5837 0.129461 17.7278 0.235692 17.8341C0.341924 17.9403 0.486004 18 0.636238 18H15.3641C15.5144 18 15.6584 17.9403 15.7647 17.8341C15.8709 17.7278 15.9306 17.5837 15.9306 17.4335V15.9233C15.9306 15.0544 15.4797 14.2908 14.7977 13.8546ZM7.7804 2.13917C7.84415 2.094 7.92035 2.06975 7.99848 2.06975C8.07661 2.06975 8.15282 2.094 8.21657 2.13917L14.6051 6.67083H1.39303L7.78153 2.13917H7.7804ZM13.6625 7.80374V13.4751C13.5999 13.4705 13.5372 13.4682 13.4744 13.4683H11.3967V7.80487H13.6625V7.80374ZM2.33561 13.4751V7.80487H4.60144V13.4694H2.52367C2.46023 13.4694 2.39679 13.4717 2.33448 13.4762L2.33561 13.4751ZM2.52481 14.6012H13.4767C14.2063 14.6012 14.7977 15.1926 14.7977 15.9233V16.8671H1.2027V15.9233C1.2027 15.1926 1.79521 14.6012 2.52481 14.6012ZM7.43372 13.4683H5.73435V7.80487H7.43372V13.4694V13.4683ZM8.56664 13.4683V7.80487H10.266V13.4694H8.56664V13.4683Z" fill="#0F7EE3"/>
</svg>
