<svg width="18" height="17" viewBox="0 0 18 17" fill="none" xmlns="http://www.w3.org/2000/svg">
<path d="M16.7364 5.89649L11.7774 5.17579L9.56062 0.681648C9.50008 0.558601 9.40047 0.458992 9.27742 0.398445C8.96883 0.246101 8.59382 0.373054 8.43953 0.681648L6.22273 5.17579L1.26374 5.89649C1.12702 5.91603 1.00202 5.98048 0.906317 6.07814C0.790617 6.19705 0.726862 6.35704 0.729059 6.52294C0.731256 6.68885 0.799227 6.84709 0.918036 6.9629L4.50593 10.461L3.65827 15.4004C3.6384 15.5153 3.65111 15.6335 3.69498 15.7415C3.73884 15.8496 3.8121 15.9432 3.90645 16.0117C4.0008 16.0802 4.11247 16.1209 4.22878 16.1292C4.34509 16.1375 4.46141 16.1131 4.56452 16.0586L9.00008 13.7266L13.4356 16.0586C13.5567 16.1231 13.6973 16.1445 13.8321 16.1211C14.172 16.0625 14.4005 15.7403 14.3419 15.4004L13.4942 10.461L17.0821 6.9629C17.1798 6.8672 17.2442 6.7422 17.2638 6.60548C17.3165 6.26368 17.0782 5.94728 16.7364 5.89649ZM11.9845 9.96876L12.6895 14.0762L9.00008 12.1387L5.31062 14.0781L6.0157 9.97072L3.03132 7.06056L7.15632 6.46095L9.00008 2.72462L10.8438 6.46095L14.9688 7.06056L11.9845 9.96876Z" fill="#0F7EE3"/>
</svg>
