<svg width="122" height="48" viewBox="0 0 122 48" fill="none" xmlns="http://www.w3.org/2000/svg">
<g clip-path="url(#clip0_2_1071)">
<path d="M58.9697 13.739L58.3711 11.9431H54.3974L53.8024 13.739H51.6797L55.1686 3.76807H57.6035L61.1071 13.739H58.9697ZM55.0254 10.1069H57.7577L56.3916 6.03402L55.0254 10.1069Z" fill="white"/>
<path d="M67.8279 12.0863C67.5769 12.533 67.2341 12.9214 66.8219 13.2259C66.4098 13.5303 65.9379 13.744 65.4371 13.8527V14.3926C65.7068 14.4282 65.955 14.5586 66.1373 14.7605C66.3197 14.9623 66.4243 15.2225 66.4324 15.4944C66.4324 16.4933 65.3931 16.934 63.2997 16.8055V15.5164C64.3244 15.5899 64.8385 15.487 64.8385 15.2336C64.8385 15.0463 64.5374 14.9178 63.9424 14.8664V13.8785C63.0668 13.7484 62.2689 13.3031 61.6985 12.6261C61.1265 11.9399 60.8225 11.0697 60.8428 10.1765C60.8312 9.67969 60.9206 9.18565 61.1055 8.72436C61.2905 8.26306 61.5671 7.8441 61.9187 7.49285C62.2703 7.1416 62.6895 6.86536 63.151 6.68087C63.6125 6.49638 64.1066 6.40748 64.6035 6.41954C65.252 6.40456 65.8922 6.56786 66.4543 6.89165C67.0164 7.21544 67.4788 7.6873 67.7912 8.25581L66.2194 9.18128C66.0668 8.88493 65.8333 8.63793 65.5459 8.46892C65.2586 8.29991 64.9293 8.21583 64.5961 8.22643C64.3402 8.22011 64.0856 8.26655 63.8484 8.36285C63.6112 8.45915 63.3963 8.60324 63.2172 8.78617C63.038 8.9691 62.8985 9.18694 62.8071 9.42614C62.7158 9.66534 62.6747 9.92077 62.6864 10.1765C62.68 10.4336 62.7247 10.6893 62.818 10.9289C62.9113 11.1685 63.0513 11.3871 63.2299 11.5721C63.4084 11.7515 63.6216 11.8926 63.8565 11.9867C64.0915 12.0808 64.3431 12.1259 64.5961 12.1193C64.9304 12.135 65.2621 12.0548 65.5523 11.8883C65.8425 11.7217 66.079 11.4757 66.2341 11.1791L67.8279 12.0863Z" fill="white"/>
<path d="M68.2285 13.739V6.6106H70.0648V13.739H68.2285Z" fill="white"/>
<path d="M76.5721 6.61051H78.4084V16.5851H76.5721V12.9126C76.3001 13.2593 75.9483 13.5352 75.5468 13.7168C75.1452 13.8984 74.7058 13.9803 74.2657 13.9556C73.8001 13.9585 73.3393 13.8617 72.9143 13.6716C72.4892 13.4816 72.1098 13.2027 71.8015 12.8538C71.131 12.1258 70.7689 11.166 70.7915 10.1765C70.7689 9.1914 71.1312 8.23625 71.8015 7.51395C72.1116 7.16724 72.4914 6.8899 72.916 6.70004C73.3407 6.51019 73.8006 6.4121 74.2657 6.41219C74.7054 6.38701 75.1447 6.46835 75.5462 6.6493C75.9478 6.83024 76.2997 7.10544 76.5721 7.45152V6.61051ZM74.6073 12.1781C74.8678 12.1882 75.1277 12.1449 75.3709 12.0508C75.6141 11.9567 75.8354 11.8138 76.0212 11.6309C76.2074 11.4357 76.3524 11.205 76.4477 10.9527C76.5429 10.7003 76.5865 10.4314 76.5758 10.1618C76.5842 9.89976 76.5395 9.63867 76.4441 9.39438C76.3488 9.15009 76.2049 8.92767 76.0212 8.74058C75.8393 8.55198 75.6197 8.40381 75.3767 8.30573C75.1337 8.20766 74.8728 8.16186 74.611 8.17133C74.3471 8.16319 74.0843 8.20954 73.8392 8.30748C73.594 8.40542 73.3717 8.55286 73.186 8.74058C73.0012 8.9299 72.8567 9.1548 72.7614 9.40164C72.666 9.64848 72.6218 9.91211 72.6315 10.1765C72.6216 10.446 72.6655 10.7147 72.7607 10.9669C72.856 11.2192 73.0005 11.4499 73.186 11.6455C73.3753 11.8253 73.5984 11.9655 73.8424 12.0582C74.0864 12.1509 74.3464 12.1941 74.6073 12.1854V12.1781Z" fill="white"/>
<path d="M62.3158 18.9172V28.8845H60.3656V22.4208L57.5598 27.0482H57.3321L54.5263 22.4319V28.8845H52.5615V18.9172H54.5851L57.446 23.6291L60.2959 18.9172H62.3158Z" fill="white"/>
<path d="M68.5847 24.5692C68.3423 23.6731 67.6739 23.2324 66.5759 23.2324C66.3186 23.219 66.0613 23.2573 65.8191 23.3449C65.5768 23.4326 65.3547 23.5679 65.1656 23.7429L63.9573 22.5347C64.3131 22.2066 64.7301 21.952 65.1845 21.7856C65.6389 21.6192 66.1218 21.5443 66.6052 21.5651C67.1251 21.5407 67.6445 21.6229 68.1315 21.8067C68.6184 21.9905 69.0626 22.272 69.4368 22.6338C70.1184 23.3608 70.4978 24.32 70.4978 25.3166C70.4978 26.3132 70.1184 27.2724 69.4368 27.9994C69.0886 28.3622 68.668 28.6477 68.2024 28.8375C67.7367 29.0273 67.2364 29.1172 66.7338 29.1011C66.2512 29.1136 65.7716 29.0216 65.3279 28.8315C64.8842 28.6413 64.4868 28.3574 64.163 27.9994C63.4865 27.2819 63.1209 26.3263 63.1457 25.3405C63.1496 25.0942 63.1729 24.8486 63.2155 24.606L68.5847 24.5692ZM64.982 25.9942C65.0514 26.4075 65.269 26.7813 65.5942 27.0456C65.9194 27.3099 66.3297 27.4466 66.7485 27.4301C67.1808 27.4602 67.6091 27.3306 67.9523 27.066C68.2955 26.8013 68.5297 26.42 68.6104 25.9942H64.982Z" fill="white"/>
<path d="M71.2178 28.8845V18.4875H73.054V28.8845H71.2178Z" fill="white"/>
<path d="M78.8675 21.7634H80.7038V28.8845H78.8675V28.0875C78.4231 28.7559 77.7143 29.0828 76.7448 29.0828C76.3854 29.095 76.0275 29.0317 75.6941 28.897C75.3607 28.7622 75.0593 28.559 74.8093 28.3005C74.2816 27.7076 74.0097 26.93 74.0528 26.1374V21.7634H75.8891V25.906C75.8891 26.8609 76.4436 27.3751 77.2993 27.3751C78.2542 27.3751 78.8675 26.7911 78.8675 25.6086V21.7634Z" fill="white"/>
<path d="M92.3825 24.4995V28.8845H90.5463V24.628C90.5463 23.7723 90.1056 23.2729 89.3527 23.2729C88.5117 23.2729 88.0269 23.8421 88.0269 24.8814V28.8845H86.1906V24.628C86.1906 23.7723 85.7499 23.2729 84.9934 23.2729C84.2368 23.2729 83.6566 23.8421 83.6566 24.8814V28.8845H81.8203V21.7635H83.6566V22.52C83.8741 22.2015 84.1714 21.9457 84.5188 21.7782C84.8662 21.6106 85.2514 21.5371 85.6361 21.5651C86.0216 21.5423 86.406 21.6257 86.7473 21.8064C87.0886 21.9871 87.3737 22.2581 87.5715 22.5898C87.8079 22.2515 88.1273 21.9795 88.499 21.8001C88.8707 21.6207 89.2823 21.5398 89.6942 21.5651C91.3285 21.5651 92.3825 22.7183 92.3825 24.4995Z" fill="white"/>
<path d="M98.7909 21.7634H100.627V28.8845H98.7909V28.0435C98.5142 28.3884 98.1594 28.6625 97.7558 28.8432C97.3522 29.024 96.9114 29.1061 96.4698 29.0828C96.0064 29.0855 95.5478 28.9885 95.1252 28.7984C94.7025 28.6083 94.3257 28.3296 94.0203 27.981C93.3706 27.2433 93.0122 26.2941 93.0122 25.3111C93.0122 24.3281 93.3706 23.3789 94.0203 22.6412C94.3266 22.2937 94.7036 22.0157 95.1261 21.8257C95.5485 21.6357 96.0066 21.5381 96.4698 21.5394C96.9136 21.5191 97.3558 21.6052 97.7595 21.7905C98.1633 21.9757 98.5169 22.2548 98.7909 22.6044V21.7634ZM96.8114 27.331C97.0719 27.3397 97.3314 27.2949 97.5739 27.1996C97.8164 27.1042 98.0369 26.9602 98.2217 26.7764C98.4079 26.5875 98.5543 26.363 98.6521 26.1163C98.7499 25.8696 98.7971 25.6058 98.7909 25.3405C98.8053 25.0693 98.7619 24.7981 98.6638 24.5449C98.5657 24.2917 98.415 24.0622 98.2217 23.8715C97.8431 23.5061 97.3375 23.302 96.8114 23.302C96.2853 23.302 95.7797 23.5061 95.4011 23.8715C95.2119 24.0645 95.065 24.2948 94.9695 24.5477C94.874 24.8006 94.8322 25.0705 94.8466 25.3405C94.8359 25.61 94.8794 25.8789 94.9747 26.1313C95.07 26.3836 95.215 26.6143 95.4011 26.8095C95.5887 26.9873 95.8104 27.1252 96.0528 27.2149C96.2952 27.3045 96.5533 27.344 96.8114 27.331Z" fill="white"/>
<path d="M105.798 23.53H104.19V26.49C104.19 27.2613 104.744 27.2759 105.798 27.2245V28.8919C103.279 29.1746 102.354 28.4512 102.354 26.4974V23.53H101.112V21.7635H102.354V20.3275L104.19 19.7693V21.7635H105.798V23.53Z" fill="white"/>
<path d="M106.525 28.8845V18.4875H108.362V28.8845H106.525Z" fill="white"/>
<path d="M114.884 21.7634H116.72V28.8845H114.884V28.0434C114.607 28.3884 114.253 28.6625 113.849 28.8432C113.445 29.0239 113.005 29.1061 112.563 29.0828C112.1 29.0855 111.641 28.9885 111.218 28.7984C110.796 28.6083 110.419 28.3296 110.114 27.981C109.464 27.2433 109.105 26.2941 109.105 25.3111C109.105 24.3281 109.464 23.3788 110.114 22.6411C110.42 22.2937 110.797 22.0157 111.219 21.8257C111.642 21.6357 112.1 21.5381 112.563 21.5394C113.005 21.5161 113.445 21.5982 113.849 21.7789C114.253 21.9597 114.607 22.2338 114.884 22.5787V21.7634ZM112.905 27.331C113.165 27.3397 113.425 27.2949 113.667 27.1996C113.91 27.1042 114.13 26.9602 114.315 26.7764C114.506 26.5841 114.655 26.3543 114.753 26.1015C114.851 25.8487 114.896 25.5783 114.884 25.3074C114.895 25.0416 114.85 24.7765 114.752 24.5292C114.653 24.2819 114.505 24.0578 114.315 23.8714C113.936 23.5061 113.431 23.302 112.905 23.302C112.379 23.302 111.873 23.5061 111.494 23.8714C111.305 24.0645 111.158 24.2948 111.063 24.5477C110.967 24.8006 110.925 25.0705 110.94 25.3405C110.929 25.61 110.973 25.8789 111.068 26.1313C111.163 26.3836 111.308 26.6143 111.494 26.8095C111.682 26.9873 111.904 27.1252 112.146 27.2149C112.388 27.3045 112.647 27.344 112.905 27.331Z" fill="white"/>
<path d="M119.655 22.99C119.828 22.5642 120.13 22.2032 120.518 21.9576C120.907 21.7119 121.362 21.594 121.821 21.6202V23.6731C121.293 23.5918 120.754 23.7139 120.312 24.0147C120.084 24.1812 119.904 24.4043 119.788 24.662C119.673 24.9196 119.627 25.2028 119.655 25.4837V28.8881H117.818V21.7634H119.655V22.99Z" fill="white"/>
<path d="M56.2781 34.0628C56.726 34.0533 57.1712 34.1343 57.587 34.3009C58.0029 34.4675 58.3808 34.7163 58.6983 35.0323C59.0132 35.345 59.2632 35.7169 59.4337 36.1266C59.6043 36.5363 59.6921 36.9757 59.6921 37.4194C59.6921 37.8632 59.6043 38.3026 59.4337 38.7123C59.2632 39.122 59.0132 39.4939 58.6983 39.8066C58.3802 40.1215 58.002 40.3692 57.5862 40.5351C57.1705 40.7011 56.7257 40.7818 56.2781 40.7725H54.5263V44.0484H52.5615V34.0628H56.2781ZM56.2781 38.9178C56.6785 38.9178 57.0624 38.7588 57.3454 38.4757C57.6285 38.1927 57.7875 37.8087 57.7875 37.4084C57.7875 37.0081 57.6285 36.6242 57.3454 36.3411C57.0624 36.058 56.6785 35.899 56.2781 35.899H54.5263V38.9289L56.2781 38.9178Z" fill="white"/>
<path d="M63.23 44.2283C62.734 44.2373 62.2413 44.1462 61.7812 43.9607C61.3211 43.7751 60.9031 43.4987 60.5522 43.1481C60.2012 42.7975 59.9245 42.3798 59.7384 41.9199C59.5524 41.46 59.4609 40.9674 59.4693 40.4713C59.4573 39.9769 59.5473 39.4853 59.7337 39.0272C59.9201 38.5691 60.1989 38.1543 60.5527 37.8088C60.989 37.3601 61.5297 37.0267 62.1265 36.8384C62.7233 36.6501 63.3575 36.6128 63.9722 36.7298C64.5869 36.8469 65.163 37.1146 65.6489 37.509C66.1347 37.9034 66.5151 38.4122 66.756 38.9898C66.9968 39.5673 67.0907 40.1956 67.029 40.8184C66.9674 41.4411 66.7522 42.0388 66.4028 42.558C66.0534 43.0771 65.5806 43.5015 65.0269 43.793C64.4732 44.0845 63.8558 44.2341 63.23 44.2283ZM63.23 42.4361C63.4858 42.4425 63.7402 42.3966 63.9776 42.3013C64.2151 42.2059 64.4305 42.0631 64.6109 41.8816C64.9671 41.4984 65.1651 40.9946 65.1651 40.4713C65.1651 39.9481 64.9671 39.4443 64.6109 39.0611C64.2391 38.7055 63.7445 38.5071 63.23 38.5071C62.7155 38.5071 62.2209 38.7055 61.8491 39.0611C61.4992 39.4474 61.3054 39.9501 61.3054 40.4713C61.3054 40.9926 61.4992 41.4953 61.8491 41.8816C62.0291 42.0636 62.2445 42.2068 62.482 42.3022C62.7195 42.3976 62.9741 42.4432 63.23 42.4361Z" fill="white"/>
<path d="M69.5653 38.1356C69.739 37.7105 70.0413 37.3503 70.4298 37.1053C70.8183 36.8604 71.2736 36.7429 71.7321 36.7694V38.8187C71.204 38.7418 70.6662 38.8635 70.2227 39.1602C69.9956 39.3276 69.8158 39.5508 69.7006 39.8082C69.5854 40.0656 69.5388 40.3485 69.5653 40.6292V44.0337H67.729V36.909H69.5653V38.1356Z" fill="white"/>
<path d="M76.5025 38.6755H74.894V41.6392C74.894 42.4067 75.4485 42.4214 76.5025 42.3737V44.0373C73.9832 44.3238 73.0577 43.5966 73.0577 41.6465V38.6828H71.8164V36.909H73.0577V35.473L74.894 34.9185V36.909H76.5025V38.6755Z" fill="white"/>
<path d="M82.4262 36.909H84.2624V44.03H82.4262V43.189C82.1497 43.5341 81.7949 43.8085 81.3913 43.9892C80.9876 44.1699 80.5468 44.2519 80.1051 44.2283C79.6435 44.2333 79.1861 44.1396 78.7636 43.9533C78.3411 43.7671 77.9633 43.4927 77.6555 43.1486C76.985 42.4205 76.623 41.4608 76.6456 40.4713C76.6222 39.486 76.9846 38.5306 77.6555 37.8087C77.9616 37.4609 78.3385 37.1827 78.7611 36.9926C79.1836 36.8026 79.6419 36.7052 80.1051 36.707C80.5468 36.6834 80.9876 36.7654 81.3913 36.9461C81.7949 37.1268 82.1497 37.4011 82.4262 37.7463V36.909ZM80.4467 42.4765C80.7071 42.4852 80.9666 42.4405 81.2092 42.3451C81.4517 42.2497 81.6721 42.1057 81.8569 41.922C82.0488 41.7302 82.1985 41.5005 82.2965 41.2475C82.3945 40.9946 82.4387 40.7239 82.4262 40.453C82.437 40.1865 82.392 39.9208 82.294 39.6729C82.1959 39.4249 82.0471 39.2002 81.8569 39.0133C81.4784 38.648 80.9728 38.4438 80.4467 38.4438C79.9206 38.4438 79.415 38.648 79.0364 39.0133C78.8518 39.2036 78.7075 39.4292 78.6122 39.6765C78.5169 39.9239 78.4726 40.188 78.4819 40.453C78.4711 40.7225 78.5147 40.9914 78.61 41.2438C78.7052 41.4961 78.8503 41.7268 79.0364 41.922C79.2212 42.1057 79.4417 42.2497 79.6842 42.3451C79.9267 42.4405 80.1862 42.4852 80.4467 42.4765Z" fill="white"/>
<path d="M85.3608 44.03V33.6367H87.1971V44.03H85.3608Z" fill="white"/>
<path d="M88.3096 44.03V36.9089H90.1458V44.03H88.3096Z" fill="white"/>
<g opacity="0.9">
<g opacity="0.9">
<path opacity="0.9" d="M31.9914 15.9976V16.5925C29.6608 15.939 27.2123 15.8224 24.8301 16.2515C22.4479 16.6805 20.194 17.6441 18.2378 19.0697C16.2816 20.4953 14.6741 22.3458 13.5361 24.4822C12.3981 26.6185 11.7593 28.985 11.6676 31.4038C8.80096 30.5973 6.21623 29.0068 4.20426 26.8113C2.1923 24.6158 0.832939 21.9024 0.279132 18.9763C-0.274674 16.0503 -0.000951339 13.0278 1.0695 10.2489C2.13996 7.46993 3.96467 5.04486 6.33832 3.24651C8.71198 1.44815 11.5404 0.347877 14.5053 0.0694748C17.4703 -0.208927 20.454 0.345594 23.121 1.67065C25.7879 2.9957 28.0322 5.0387 29.6012 7.56978C31.1703 10.1009 32.0019 13.0196 32.0025 15.9976H31.9914Z" fill="white"/>
</g>
</g>
<path d="M31.9805 16.5925C31.8889 19.0113 31.25 21.3779 30.1121 23.5142C28.9741 25.6506 27.3666 27.5011 25.4104 28.9267C23.4542 30.3523 21.2003 31.3159 18.8181 31.7449C16.4359 32.174 13.9874 32.0574 11.6567 31.4039C11.7484 28.9851 12.3872 26.6185 13.5252 24.4822C14.6632 22.3458 16.2707 20.4953 18.2269 19.0697C20.1831 17.6441 22.437 16.6805 24.8192 16.2515C27.2014 15.8224 29.6499 15.939 31.9805 16.5925Z" fill="white"/>
<g opacity="0.7">
<g opacity="0.7">
<path opacity="0.7" d="M43.648 31.9988C43.648 36.2426 41.9621 40.3126 38.9613 43.3134C35.9605 46.3142 31.8905 48 27.6467 48C23.4029 48 19.333 46.3142 16.3322 43.3134C13.3313 40.3126 11.6455 36.2426 11.6455 31.9988V31.4039C13.9762 32.0574 16.4246 32.174 18.8068 31.7449C21.189 31.3158 23.443 30.3523 25.3991 28.9267C27.3553 27.5011 28.9628 25.6505 30.1008 23.5142C31.2388 21.3779 31.8777 19.0113 31.9693 16.5925C35.3289 17.537 38.2879 19.5532 40.3961 22.3343C42.5042 25.1153 43.6461 28.509 43.648 31.9988Z" fill="white"/>
</g>
</g>
</g>
<defs>
<clipPath id="clip0_2_1071">
<rect width="121.822" height="48" fill="white"/>
</clipPath>
</defs>
</svg>
